<svg xmlns="http://www.w3.org/2000/svg" viewBox="0 0 947.72 240.24"><defs><style>.cls-1{fill:#1d1d1b;}</style></defs><title>Artboard 1</title><g id="Layer_1" data-name="Layer 1"><path class="cls-1" d="M244.92,108.13V36.89H284.6V49.73H260.21V65.34H277V76.89h-16.8V94.76H284.6v13.37Z"/><path class="cls-1" d="M317.33,49.94v58.19H302V49.94h-15.4v-13h46v13Z"/><path class="cls-1" d="M370,108.13V79.57H352.19v28.56H336.9V36.89h15.29V66.41H370V36.89h15.29v71.24Z"/><path class="cls-1" d="M393.37,108.13V36.89h15.29v71.24Z"/><path class="cls-1" d="M439.57,109.94c-14.65,0-23.42-9.09-23.42-21.82V56.89c0-12.62,8.77-21.71,23.42-21.71S463,44.27,463,56.89V88.12C463,100.85,454.34,109.94,439.57,109.94Zm8-53.9c0-4.82-2.88-8-8-8s-7.91,3.2-7.91,8V89c0,4.81,2.89,8,7.91,8s8-3.21,8-8Z"/><path class="cls-1" d="M496.15,81.71H485.67v26.42h-15.3V36.89h25.78c12,0,18.29,7,18.29,17.65v9.63C514.44,74.75,508.13,81.71,496.15,81.71Zm3.64-26.85c0-3.85-1.5-6-5.46-6h-8.66v21.5h8.66c4,0,5.46-2.14,5.46-6Z"/><path class="cls-1" d="M520.21,108.13V36.89h15.3v71.24Z"/><path class="cls-1" d="M574,108.13,571,94H556.26l-3,14.12H538.93l16.68-71.24h17.12l16.58,71.24ZM564,56.68l-5.46,26H569Z"/><path class="cls-1" d="M632.3,109.94c-15.08,0-23.85-9.73-23.85-22V57.11c0-12.3,8.77-22,23.85-22,14.87,0,22.46,8.88,22.46,20.75v7H641.07V56.14c0-4.92-2.89-8.12-8.55-8.12S624,51.33,624,55.93V89.19c0,4.5,2.89,7.81,8.56,7.81s8.55-3.21,8.55-8.13V82.24h13.69v7C654.76,101.07,647.17,109.94,632.3,109.94Z"/><path class="cls-1" d="M683.64,109.94c-14.65,0-23.42-9.09-23.42-21.82V56.89c0-12.62,8.77-21.71,23.42-21.71s23.42,9.09,23.42,21.71V88.12C707.06,100.85,698.4,109.94,683.64,109.94Zm8-53.9c0-4.82-2.89-8-8-8s-7.91,3.2-7.91,8V89c0,4.81,2.88,8,7.91,8s8-3.21,8-8Z"/><path class="cls-1" d="M741.5,108.13H727L708.67,36.89h15.72l10.37,48.45,10.38-48.45h15Z"/><path class="cls-1" d="M763.43,108.13V36.89h15.29v71.24Z"/><path class="cls-1" d="M810.7,108.13H787V36.89H810.7c14.76,0,22.67,9.52,22.67,21.39V87.59C833.37,99.57,825.46,108.13,810.7,108.13Zm7.38-49.53c0-5.66-2.68-9-8.56-9h-7.27V95.4h7.27c5.88,0,8.56-3.32,8.56-9Z"/><path class="cls-1" d="M838.83,80.85V70.9H864.6v9.95Z"/><path class="cls-1" d="M872.52,108.13V43.31c4.71,0,6.31-3.1,6.31-6.42h7.81v71.24Z"/><path class="cls-1" d="M918,109.94c-13.58,0-21-8.66-21-18.5V88.12h12.41v1.29c0,5.67,3,8.45,8.66,8.45,5.88,0,8.24-3.32,8.24-8.35V75.18c-2.67,3.53-6.42,6.53-13.26,6.53-10.38,0-16.26-6.74-16.26-15.62V55.72c0-12.3,8.12-20.54,21.6-20.54,14,0,21.82,8.24,21.82,20.64V89.19C940.22,101.81,931.45,109.94,918,109.94Zm8.35-55.19c0-4.06-2.57-7.59-7.92-7.59-5,0-7.81,3.1-7.81,7.17V64.91c0,4.07,2.47,7.17,7.81,7.17,5.14,0,7.92-3.21,7.92-7.17Z"/><path class="cls-1" d="M284,204.31c-8,0-10.81-2.24-10.81-9.62V180.78c0-4.92-2.24-8.23-7.38-8.23h-10v31H245.56V132.33H266.2c11.55,0,16.69,5.77,16.69,15.94v7.8c0,7-2.36,11.13-9.2,12.52,6.74,1.07,9.52,6.74,9.52,12.4v12.95c0,1.92.86,2.78,3,2.78v7.59Zm-11.23-56.26c0-4.06-1.71-7-6.53-7H255.72v23.75h9.41c4.92,0,7.6-2.79,7.6-8.14Z"/><path class="cls-1" d="M291.66,203.56V132.33h33.15v9.2h-23.1v20.32H318.4v8.77H301.71v23.74h23.1v9.2Z"/><path class="cls-1" d="M348.45,205.17c-11.77,0-19.57-7.7-19.57-18.08v-4.92h10.05v3.32c0,7.27,3.32,11,9.63,11s9.41-3.75,9.41-9.2c0-6.32-2.78-10.27-11.77-15.94-8-5.13-16.47-12.09-16.47-22.36s6.74-18.18,18.83-18.18c11.55,0,18.93,7.6,18.93,18.08v4.6h-9.63v-3.32c0-6-2.89-10.7-9.62-10.7-5.57,0-8.46,3.32-8.46,8.13,0,6.31,2.89,9.63,13.16,16.26S368,176.61,368,185.81C368,197.57,359.68,205.17,348.45,205.17Z"/><path class="cls-1" d="M395.62,175H385v28.56H375V132.33h20.64c11.55,0,16.68,6.2,16.68,16.47v9.84C412.3,168.69,407.17,175,395.62,175Zm6.52-26.52c0-4.71-1.71-7.38-6.42-7.38H385v25.24h10.69c4.71,0,6.42-2.78,6.42-7.38Z"/><path class="cls-1" d="M437.76,205.17c-13.37,0-19.9-8.77-19.9-20.43V151.15c0-11.55,6.53-20.32,19.9-20.32s19.89,8.77,19.89,20.32v33.59C457.65,196.4,451.23,205.17,437.76,205.17Zm9.83-54.87c0-6.1-3.21-10.48-9.83-10.48S428,144.2,428,150.3v35.29c0,6.1,3.1,10.49,9.74,10.49s9.83-4.39,9.83-10.49Z"/><path class="cls-1" d="M499.25,203.56,481.6,168.91l-6-12.51v47.16H466V132.33h8.24l16.9,35.3,5.66,12.51V132.33h9.63v71.23Z"/><path class="cls-1" d="M532.73,205.17c-11.76,0-19.57-7.7-19.57-18.08v-4.92h10.05v3.32c0,7.27,3.32,11,9.63,11s9.41-3.75,9.41-9.2c0-6.32-2.78-10.27-11.77-15.94-8-5.13-16.47-12.09-16.47-22.36s6.74-18.18,18.83-18.18c11.55,0,18.93,7.6,18.93,18.08v4.6h-9.63v-3.32c0-6-2.88-10.7-9.62-10.7-5.56,0-8.45,3.32-8.45,8.13,0,6.31,2.89,9.63,13.15,16.26s15.08,12.73,15.08,21.93C552.3,197.57,544,205.17,532.73,205.17Z"/><path class="cls-1" d="M559.25,203.56V132.33h33.16v9.2H569.3v20.32H586v8.77H569.3v23.74h23.11v9.2Z"/><path class="cls-1" d="M635,141.63v61.93H624.82V141.63H610.16v-9.3h39.36v9.3Z"/><path class="cls-1" d="M654.55,203.56V132.33H687.7v9.2H664.6v20.32h16.69v8.77H664.6v23.74h23.1v9.2Z"/><path class="cls-1" d="M722.14,203.56l-3.74-17.43H703l-3.75,17.43h-9.84l16.16-71.23h10.69l16.15,71.23ZM710.7,148.27l-5.89,29.2h11.77Z"/><path class="cls-1" d="M781,203.56V148.05l-2.88,13.59-9.73,41.92h-10l-9.52-41.92-3-13.59v55.51h-9V132.33H751l9.73,44.49,2.89,13.59,2.89-13.69L776,132.33h14.12v71.23Z"/><path d="M102.58,81.08a31.29,31.29,0,1,0,31.29,31.29A31.34,31.34,0,0,0,102.58,81.08Zm0,55.37a24.08,24.08,0,1,1,24-24.08A24.09,24.09,0,0,1,102.58,136.45Zm0-55.37a31.29,31.29,0,1,0,31.29,31.29A31.34,31.34,0,0,0,102.58,81.08Zm0,55.37a24.08,24.08,0,1,1,24-24.08A24.09,24.09,0,0,1,102.58,136.45Zm0-55.37a31.29,31.29,0,1,0,31.29,31.29A31.34,31.34,0,0,0,102.58,81.08Zm0,55.37a24.08,24.08,0,1,1,24-24.08A24.09,24.09,0,0,1,102.58,136.45Zm0-55.37a31.29,31.29,0,1,0,31.29,31.29A31.34,31.34,0,0,0,102.58,81.08Zm0,55.37a24.08,24.08,0,1,1,24-24.08A24.09,24.09,0,0,1,102.58,136.45Zm0-55.37a31.29,31.29,0,1,0,31.29,31.29A31.34,31.34,0,0,0,102.58,81.08Zm0,55.37a24.08,24.08,0,1,1,24-24.08A24.09,24.09,0,0,1,102.58,136.45Zm0-55.37a31.29,31.29,0,1,0,31.29,31.29A31.34,31.34,0,0,0,102.58,81.08Zm0,55.37a24.08,24.08,0,1,1,24-24.08A24.09,24.09,0,0,1,102.58,136.45Zm0-55.37a31.29,31.29,0,1,0,31.29,31.29A31.34,31.34,0,0,0,102.58,81.08Zm0,55.37a24.08,24.08,0,1,1,24-24.08A24.09,24.09,0,0,1,102.58,136.45Zm0-55.37a31.29,31.29,0,1,0,31.29,31.29A31.34,31.34,0,0,0,102.58,81.08Zm0,55.37a24.08,24.08,0,1,1,24-24.08A24.09,24.09,0,0,1,102.58,136.45Zm0-119.77L19.85,44.29v59.88a127.68,127.68,0,0,0,82.73,119.36,127.72,127.72,0,0,0,82.73-119.36V44.29Zm33.48,50,3.88-3.88L152.08,75l-3.85,3.87-4.16-4.16L133.87,85,130,81.08l10.23-10.23ZM94,50.93h17.19v5.46h-5.85V70.85H99.85V56.39H94ZM65.22,62.84l3.84,3.88-4.13,4.13L75.16,81.08,71.29,85,61.06,74.72l-4.13,4.16L53.05,75ZM46.6,121H41.14V103.79H46.6v5.85H61.06v5.46H46.6Zm22.46,37-3.84,3.88L53.05,149.73l3.88-3.88L61.06,150l10.23-10.23,3.87,3.87L64.93,153.89Zm42.1,15.79H94v-5.46h5.88V153.89h5.46v14.46h5.85Zm-8.58-24.68a36.76,36.76,0,1,1,36.76-36.76A36.81,36.81,0,0,1,102.58,149.13Zm37.36,12.77L136.06,158l4.17-4.13L130,143.66l3.87-3.87L144.07,150l4.16-4.17,3.85,3.88ZM164,121h-5.5V115.1H144.07v-5.46h14.45v-5.85H164Zm-61.44-39.9a31.29,31.29,0,1,0,31.29,31.29A31.34,31.34,0,0,0,102.58,81.08Zm0,55.37a24.08,24.08,0,1,1,24-24.08A24.09,24.09,0,0,1,102.58,136.45Zm0-55.37a31.29,31.29,0,1,0,31.29,31.29A31.34,31.34,0,0,0,102.58,81.08Zm0,55.37a24.08,24.08,0,1,1,24-24.08A24.09,24.09,0,0,1,102.58,136.45Zm0-55.37a31.29,31.29,0,1,0,31.29,31.29A31.34,31.34,0,0,0,102.58,81.08Zm0,55.37a24.08,24.08,0,1,1,24-24.08A24.09,24.09,0,0,1,102.58,136.45Zm0-55.37a31.29,31.29,0,1,0,31.29,31.29A31.34,31.34,0,0,0,102.58,81.08Zm0,55.37a24.08,24.08,0,1,1,24-24.08A24.09,24.09,0,0,1,102.58,136.45Zm0-55.37a31.29,31.29,0,1,0,31.29,31.29A31.34,31.34,0,0,0,102.58,81.08Zm0,55.37a24.08,24.08,0,1,1,24-24.08A24.09,24.09,0,0,1,102.58,136.45Zm0-55.37a31.29,31.29,0,1,0,31.29,31.29A31.34,31.34,0,0,0,102.58,81.08Zm0,55.37a24.08,24.08,0,1,1,24-24.08A24.09,24.09,0,0,1,102.58,136.45Zm0-55.37a31.29,31.29,0,1,0,31.29,31.29A31.34,31.34,0,0,0,102.58,81.08Zm0,55.37a24.08,24.08,0,1,1,24-24.08A24.09,24.09,0,0,1,102.58,136.45Zm0-55.37a31.29,31.29,0,1,0,31.29,31.29A31.34,31.34,0,0,0,102.58,81.08Zm0,55.37a24.08,24.08,0,1,1,24-24.08A24.09,24.09,0,0,1,102.58,136.45Zm0-55.37a31.29,31.29,0,1,0,31.29,31.29A31.34,31.34,0,0,0,102.58,81.08Zm0,55.37a24.08,24.08,0,1,1,24-24.08A24.09,24.09,0,0,1,102.58,136.45Z"/><path d="M102.58,0,5.94,32.25v69.92a146.69,146.69,0,0,0,96.64,138.07,146.74,146.74,0,0,0,96.61-138.07V32.25Zm89.08,104.17a134,134,0,0,1-88,125.71l-1.08.42-1.08-.42a133.93,133.93,0,0,1-88-125.71V39.71L102.58,10l89.08,29.7Z"/></g></svg>